<?xml version="1.0" standalone="no"?>
<!DOCTYPE svg PUBLIC "-//W3C//DTD SVG 20010904//EN"
 "http://www.w3.org/TR/2001/REC-SVG-20010904/DTD/svg10.dtd">
<svg version="1.0" xmlns="http://www.w3.org/2000/svg"
 width="280.000000pt" height="280.000000pt" viewBox="0 0 280.000000 280.000000"
 preserveAspectRatio="xMidYMid meet">
<metadata>
Created by potrace 1.14, written by Peter Selinger 2001-2017
</metadata>
<g transform="translate(0.000000,280.000000) scale(0.100000,-0.100000)"
fill="#000000" stroke="none">
<path d="M2050 2740 c0 -5 5 -10 11 -10 5 0 7 5 4 10 -3 6 -8 10 -11 10 -2 0
-4 -4 -4 -10z"/>
<path d="M2113 2736 c1 -6 -4 -10 -11 -8 -8 1 -11 -2 -7 -8 9 -15 19 -12 32 8
9 15 8 19 -2 19 -8 0 -13 -5 -12 -11z"/>
<path d="M2261 2713 c-6 -10 -11 -15 -11 -11 0 4 -14 3 -31 -2 -24 -7 -35 -6
-46 6 -9 8 -18 12 -22 8 -3 -4 0 -9 7 -11 6 -3 12 -9 12 -15 0 -6 -7 -8 -15
-5 -8 4 -17 2 -20 -3 -4 -6 -11 -10 -18 -10 -6 0 -2 6 9 14 10 8 16 18 11 22
-4 4 -7 2 -7 -4 0 -7 -6 -12 -14 -12 -8 0 -16 -5 -18 -12 -2 -6 -11 -13 -19
-14 -46 -9 -63 -15 -77 -26 -12 -10 -14 -10 -8 0 4 6 2 12 -3 12 -6 0 -11 -4
-11 -8 0 -16 -45 -30 -63 -20 -17 9 -18 8 -21 -14 0 -6 -7 -13 -14 -16 -7 -2
-10 2 -6 11 3 8 0 18 -7 23 -7 4 -10 3 -6 -4 10 -15 -2 -41 -24 -53 -15 -8
-17 -6 -12 7 4 12 3 15 -5 10 -7 -4 -12 -15 -12 -24 0 -15 -2 -15 -10 -2 -8
13 -10 13 -10 -2 0 -9 -5 -20 -12 -24 -7 -4 -8 -3 -4 4 5 8 2 10 -8 6 -9 -3
-13 -11 -9 -17 3 -6 1 -7 -5 -3 -19 11 -14 26 11 36 13 5 16 9 6 9 -8 1 -20
-4 -27 -11 -8 -8 -15 -8 -26 1 -12 10 -14 9 -11 -6 2 -10 4 -22 4 -28 1 -5 5
-4 10 3 7 11 9 11 14 -1 7 -18 -14 -17 -37 2 -9 7 -16 10 -16 5 0 -5 -4 -3 -9
5 -10 16 -30 22 -76 23 -16 0 -36 6 -44 12 -11 8 -13 8 -7 -1 4 -7 2 -13 -3
-13 -6 0 -11 5 -11 10 0 6 -5 10 -11 10 -5 0 -8 -3 -5 -8 6 -10 -106 -9 -121
1 -7 5 -13 5 -13 1 0 -3 -8 0 -17 7 -14 12 -16 12 -8 0 6 -11 4 -13 -7 -8 -9
3 -20 1 -26 -5 -8 -8 -18 -6 -36 6 -21 13 -24 14 -20 1 4 -8 11 -15 18 -16 6
0 -2 -5 -17 -9 -33 -10 -60 -3 -50 14 3 6 2 7 -3 3 -5 -5 -10 -13 -10 -18 -3
-22 -5 -23 -14 -9 -8 12 -10 12 -15 -2 -6 -16 -9 -16 -33 -2 -21 12 -23 13 -9
1 16 -13 15 -15 -15 -22 -18 -5 -37 -9 -43 -9 -5 -1 -21 -11 -34 -22 -13 -12
-31 -20 -40 -19 -9 2 -19 4 -23 4 -5 1 -8 6 -8 12 0 6 5 7 13 2 19 -12 38 -12
31 -1 -4 7 -2 8 4 4 8 -5 10 -2 6 9 -6 14 -8 14 -19 -2 -13 -17 -14 -17 -20
-1 -5 14 -10 15 -20 5 -7 -7 -11 -15 -9 -18 2 -4 -15 0 -39 8 -23 8 -46 21
-50 29 -4 8 -13 14 -20 14 -7 0 -6 -4 3 -10 13 -8 12 -10 -2 -10 -10 0 -18 5
-18 10 0 6 -5 10 -11 10 -5 0 -7 -4 -4 -10 3 -5 -1 -10 -9 -10 -9 0 -16 5 -16
11 0 6 -7 9 -15 5 -8 -3 -15 -1 -15 4 0 6 5 10 12 10 6 0 8 3 4 7 -4 5 -14 -1
-22 -12 -12 -17 -16 -18 -24 -5 -11 17 -3 33 12 24 7 -4 8 -2 4 4 -12 19 -37
2 -31 -22 4 -12 3 -16 -2 -10 -4 6 -23 10 -41 8 -17 -1 -32 2 -32 6 0 5 -7 6
-17 3 -12 -5 -14 -3 -8 8 6 11 5 12 -6 2 -16 -16 -39 -17 -39 -2 0 5 4 8 9 4
5 -3 12 -1 15 4 4 5 -2 8 -11 6 -10 -2 -22 -4 -26 -4 -5 -1 -6 -5 -3 -9 3 -5
-28 -9 -67 -9 -116 -2 -109 -1 -98 -22 6 -10 8 -29 6 -41 -3 -13 1 -30 7 -38
9 -10 9 -15 -1 -22 -11 -6 -11 -8 0 -12 8 -3 11 -9 7 -13 -4 -4 -13 -4 -21 1
-7 5 -4 1 7 -9 14 -13 21 -33 22 -68 1 -27 -2 -46 -7 -44 -4 3 -11 1 -14 -5
-4 -6 -3 -10 2 -9 23 4 33 -3 33 -24 0 -13 3 -27 7 -31 4 -3 8 -13 10 -21 2
-8 4 -21 6 -29 2 -8 9 -21 15 -29 10 -12 10 -17 1 -23 -8 -5 -10 -3 -4 7 5 8
4 10 0 6 -16 -14 -14 -36 3 -30 9 4 13 2 9 -4 -4 -6 -1 -14 5 -17 9 -3 7 -10
-7 -21 -20 -17 -20 -17 3 -10 12 3 22 3 21 -2 -4 -15 13 -43 22 -37 5 3 9 0 9
-5 0 -6 -4 -11 -9 -11 -5 0 -11 -6 -14 -13 -3 -8 1 -14 9 -14 7 0 11 4 8 9 -9
15 6 8 26 -12 12 -12 15 -22 9 -26 -7 -4 0 -14 16 -24 29 -19 30 -25 10 -54
-8 -10 -11 -25 -8 -32 3 -9 -2 -14 -13 -14 -16 0 -17 2 -4 11 12 9 12 10 -3 5
-10 -3 -22 -6 -25 -6 -4 -1 4 -7 18 -15 14 -8 19 -14 11 -15 -7 0 -11 -6 -8
-14 3 -7 -6 -32 -19 -56 -13 -23 -21 -47 -18 -52 4 -6 -1 -8 -14 -4 -12 4 -23
2 -28 -5 -4 -8 -3 -9 4 -5 7 4 16 5 22 1 11 -7 2 -35 -12 -35 -6 0 -4 8 3 18
12 15 12 16 -2 5 -9 -7 -20 -9 -24 -5 -5 4 -5 1 -1 -5 22 -39 9 -77 -18 -54
-9 8 -13 7 -13 -4 0 -7 3 -14 6 -13 20 2 31 -3 26 -12 -3 -5 -11 -7 -18 -5
-16 6 -44 -12 -34 -22 5 -4 12 -1 17 7 5 8 12 11 15 8 4 -4 3 -13 -1 -20 -5
-7 -9 -19 -11 -27 -2 -18 -23 -39 -23 -24 0 15 -30 10 -40 -7 -4 -7 -6 -19 -3
-27 4 -10 -2 -13 -22 -11 -18 2 -29 -2 -32 -12 -4 -13 -3 -13 6 0 5 8 12 12
16 9 9 -10 -34 -52 -48 -46 -8 3 -18 -6 -24 -24 -8 -20 -8 -29 -1 -29 6 0 5
-6 -2 -15 -7 -9 -10 -18 -6 -22 3 -3 6 -1 6 5 0 7 5 12 11 12 6 0 9 -6 7 -12
-3 -7 5 -21 16 -31 12 -10 15 -16 9 -12 -7 3 -13 2 -13 -3 0 -6 7 -13 16 -16
8 -3 13 -10 10 -14 -3 -5 3 -16 12 -25 41 -39 44 -45 22 -67 -11 -11 -16 -20
-11 -20 6 0 13 5 16 10 9 15 25 12 25 -5 0 -8 5 -15 11 -15 6 0 3 -7 -5 -16
-9 -8 -16 -21 -16 -27 0 -7 5 -4 11 5 13 23 42 12 34 -13 -4 -13 -2 -17 7 -14
21 7 70 -38 62 -58 -3 -9 -11 -14 -17 -10 -5 3 -7 1 -4 -5 8 -11 25 -11 46 2
8 5 16 3 22 -5 5 -8 9 -10 9 -5 0 6 6 1 14 -10 8 -10 18 -19 23 -19 19 -1 53
-27 53 -41 0 -8 5 -12 10 -9 6 3 10 1 10 -5 0 -6 4 -9 9 -6 5 3 24 -8 42 -24
19 -16 37 -30 42 -30 4 0 7 -7 7 -16 0 -8 4 -13 9 -10 11 7 112 -59 105 -68
-2 -3 1 -2 7 3 15 12 38 -9 32 -29 -3 -10 -1 -9 7 2 11 19 40 25 40 9 0 -5 15
-12 33 -16 17 -4 35 -9 40 -10 4 -1 12 -3 18 -4 5 0 8 -5 5 -10 -3 -5 2 -15
11 -22 14 -12 15 -11 9 11 -6 22 -5 22 4 7 7 -10 9 -21 6 -24 -3 -4 0 -13 7
-21 9 -13 9 -14 0 -8 -19 11 -16 -2 7 -26 11 -12 17 -24 14 -27 -4 -3 -9 0
-11 7 -3 6 -9 9 -14 6 -6 -4 -6 -10 0 -18 6 -7 6 -17 1 -26 -8 -12 -10 -12
-10 -1 0 11 -3 11 -17 0 -11 -10 -14 -10 -9 -2 4 8 2 13 -5 13 -7 0 -4 7 7 16
10 8 14 13 8 10 -6 -3 -11 1 -11 9 0 8 3 12 7 10 4 -3 7 5 6 17 -1 22 -26 39
-26 18 0 -6 -5 -8 -12 -4 -9 6 -9 3 0 -9 17 -20 8 -37 -18 -32 -14 3 -17 -1
-13 -12 3 -8 0 -19 -8 -24 -10 -6 -8 -8 7 -7 14 2 20 7 17 18 -3 10 2 17 10
17 8 0 15 -10 15 -22 0 -21 -8 -25 -52 -26 -10 0 -15 -3 -12 -6 4 -4 -6 -12
-21 -19 -21 -8 -32 -8 -42 0 -12 9 -13 8 -6 -3 6 -11 4 -13 -9 -8 -10 4 -15 3
-11 -3 3 -6 -6 -15 -22 -20 -15 -6 -35 -13 -43 -17 -19 -8 -19 -8 -53 -17 -17
-5 -29 -17 -33 -33 -4 -14 -12 -22 -19 -19 -9 3 -11 -2 -7 -17 5 -20 4 -21
-14 -7 -17 14 -18 14 -6 -2 8 -10 39 -29 69 -43 43 -20 54 -29 49 -42 -6 -17
-5 -17 7 -1 11 13 16 15 25 6 7 -7 12 -8 12 -4 0 5 6 4 12 -1 7 -6 46 -20 86
-33 48 -14 70 -26 66 -33 -5 -8 -2 -8 7 1 17 16 34 16 21 -1 -8 -10 -6 -13 9
-14 11 -1 17 2 14 8 -4 5 -2 9 4 9 5 0 13 -9 16 -21 6 -18 8 -19 18 -4 14 18
77 11 77 -9 0 -6 4 -5 9 3 6 9 15 11 27 6 11 -5 23 -9 27 -9 5 -1 15 -10 23
-20 8 -11 14 -15 14 -9 0 7 -4 15 -10 18 -5 3 -10 11 -10 17 0 7 5 7 13 1 6
-5 64 -9 127 -8 63 1 118 0 123 -2 4 -2 2 -14 -4 -26 -9 -20 -9 -20 4 -4 16
19 32 24 21 5 -5 -7 -3 -8 6 -3 10 6 10 11 -3 20 -25 18 -22 20 26 22 23 0 52
3 64 6 13 3 25 2 28 -4 4 -5 12 -9 18 -9 7 0 6 4 -3 10 -8 5 -13 10 -10 11 3
0 12 2 20 4 39 8 72 15 97 20 14 3 35 11 45 16 15 8 23 7 33 -8 13 -17 14 -16
8 5 -3 13 -2 22 3 20 5 -1 19 3 31 10 19 10 22 10 17 -1 -3 -8 2 -14 10 -14 9
0 12 6 8 16 -3 9 -2 13 3 9 4 -4 14 0 22 8 8 8 19 12 24 9 5 -4 9 -1 9 5 0 6
4 9 9 6 5 -4 11 -2 13 3 4 12 124 71 132 66 3 -3 4 -2 1 2 -3 3 3 12 12 18 16
12 15 15 -15 41 -31 27 -45 53 -20 38 7 -5 8 -3 3 5 -5 9 -10 10 -18 2 -7 -7
-15 -5 -24 7 -8 9 -12 11 -8 5 7 -14 -20 -8 -42 10 -7 5 -13 6 -13 3 0 -4 -9
-2 -21 5 -14 7 -18 14 -11 21 13 13 35 1 26 -14 -4 -7 -2 -8 4 -4 30 18 -7 43
-38 26 -25 -14 -50 -3 -42 18 5 15 4 15 -11 3 -9 -7 -17 -9 -17 -5 0 5 9 15
21 22 11 7 18 19 16 26 -3 8 8 26 24 42 30 29 53 89 42 108 -4 6 6 3 22 -8 17
-10 25 -13 18 -6 -10 11 -9 16 5 27 16 12 16 13 -2 6 -14 -5 -17 -3 -11 7 5 9
4 11 -4 6 -6 -4 -8 -12 -5 -18 4 -6 2 -8 -4 -5 -11 7 -5 47 7 47 4 0 13 -6 20
-12 8 -7 5 0 -5 17 -12 18 -14 26 -5 21 10 -7 12 -3 6 15 l-8 24 24 -20 c18
-15 21 -16 10 -2 -19 24 -5 35 15 11 15 -19 15 -19 6 1 -8 14 -6 23 6 33 11 8
5 7 -15 -3 -19 -9 -33 -11 -33 -5 0 5 7 10 16 10 9 0 12 5 8 12 -4 7 -3 8 4 4
7 -4 12 -2 12 4 0 6 4 8 10 5 6 -3 7 1 4 9 -3 9 -1 16 5 16 10 0 15 -12 13
-31 -1 -3 5 -6 13 -6 11 0 11 5 -2 23 -17 26 -6 56 27 74 11 6 20 17 20 25 0
8 4 15 9 15 5 0 19 16 31 35 12 19 25 33 29 31 4 -3 13 9 20 25 7 16 17 27 22
23 5 -3 9 2 9 10 0 9 3 16 8 16 4 0 12 10 17 23 6 12 16 21 23 20 7 -2 12 4
12 13 0 8 12 28 28 43 15 16 28 39 30 52 1 13 3 30 4 37 1 6 6 12 11 12 5 0 7
7 3 15 -3 10 1 15 12 16 10 0 12 3 5 6 -7 2 -13 9 -13 15 0 6 7 7 16 4 15 -6
15 -4 3 11 -12 15 -12 16 4 10 9 -3 17 -2 17 3 0 6 -4 10 -10 10 -14 0 -8 22
10 38 8 8 10 11 4 8 -7 -3 -9 3 -6 19 2 14 8 22 13 19 5 -3 6 2 3 10 -3 9 -1
16 5 16 6 0 11 -5 11 -12 0 -6 3 -8 6 -5 4 4 2 13 -5 20 -6 8 -9 22 -5 30 4
12 -8 23 -50 44 -31 15 -56 31 -56 35 0 5 12 1 28 -8 25 -15 26 -15 7 1 -11 9
-19 22 -17 28 2 6 -5 3 -16 -6 -12 -11 -22 -14 -26 -8 -4 5 6 17 21 25 15 8
24 15 18 15 -5 0 -21 -6 -34 -13 -31 -17 -57 -10 -40 10 9 12 9 13 -4 9 -18
-8 -29 6 -18 24 6 9 11 10 15 2 9 -14 26 -14 26 0 0 5 -5 7 -10 4 -6 -3 -14 4
-19 17 -7 17 -10 19 -10 6 -1 -22 -31 -24 -31 -3 0 9 7 18 15 21 8 4 15 10 15
16 0 5 -4 7 -9 4 -5 -4 -11 -3 -14 1 -2 5 -2 3 -1 -4 2 -6 -4 -14 -12 -17 -8
-3 -13 -2 -9 3 3 5 -1 12 -7 14 -10 4 -10 6 0 6 6 1 12 5 12 11 0 5 -7 7 -15
4 -11 -4 -13 -2 -10 9 4 8 -1 17 -10 21 -9 3 -13 10 -10 16 3 5 1 10 -6 10 -6
0 -9 8 -6 19 3 14 1 18 -9 14 -8 -3 -14 0 -14 6 0 7 -8 23 -17 38 -19 29 -26
93 -10 93 6 0 7 3 4 6 -3 4 -1 16 5 28 7 11 11 25 10 29 -1 5 1 6 6 3 4 -2 14
4 21 16 7 11 8 17 2 13 -12 -7 -15 8 -3 19 4 4 8 12 8 17 1 5 2 10 4 12 2 3
10 38 12 59 1 9 5 15 9 12 4 -2 9 5 12 16 3 13 1 18 -6 13 -7 -4 -8 0 -4 11 4
10 7 21 7 26 0 4 14 6 30 5 17 -1 28 0 25 4 -4 3 -16 6 -27 6 -12 0 -23 6 -26
14 -3 10 0 12 11 8 11 -4 14 -2 10 8 -3 8 -10 12 -15 9 -6 -4 -6 1 1 13 5 11
8 32 5 47 -2 15 0 26 6 26 6 0 8 -5 4 -12 -4 -7 -3 -8 5 -4 9 6 9 11 -1 23
-15 18 -20 73 -7 73 6 0 7 -5 3 -12 -4 -7 -3 -8 4 -4 6 4 9 13 6 21 -4 8 -9
13 -13 11 -3 -2 -7 19 -7 47 -1 57 -7 117 -11 117 -1 0 -7 -8 -12 -17z m-1866
-1274 c-10 -15 -25 -10 -19 6 4 8 10 12 15 9 5 -3 7 -10 4 -15z m107 -491 c-7
-7 -12 -8 -12 -2 0 14 12 26 19 19 2 -3 -1 -11 -7 -17z m548 -368 c0 -5 -5
-10 -11 -10 -5 0 -7 5 -4 10 3 6 8 10 11 10 2 0 4 -4 4 -10z"/>
<path d="M2066 2694 c-4 -9 -4 -19 -1 -22 3 -3 5 1 5 9 0 12 2 11 10 -1 7 -12
9 -10 7 8 -2 26 -12 29 -21 6z"/>
<path d="M2016 2678 c3 -4 0 -8 -7 -8 -7 0 -10 -3 -6 -6 3 -3 16 1 28 9 22 16
22 16 1 14 -11 0 -18 -5 -16 -9z"/>
<path d="M2293 2675 c0 -8 4 -12 9 -9 5 3 6 10 3 15 -9 13 -12 11 -12 -6z"/>
<path d="M1909 2663 c-13 -16 -12 -17 4 -4 16 13 21 21 13 21 -2 0 -10 -8 -17
-17z"/>
<path d="M1937 2641 c-4 -17 -3 -21 5 -13 5 5 8 16 6 23 -3 8 -7 3 -11 -10z"/>
<path d="M1454 2621 c4 -7 -2 -15 -16 -20 -13 -6 -17 -10 -10 -10 7 -1 10 -5
7 -11 -13 -22 4 -8 19 14 11 18 13 27 4 32 -7 4 -8 3 -4 -5z"/>
<path d="M1833 2615 c0 -8 4 -15 9 -15 4 0 8 4 8 9 0 6 -4 12 -8 15 -5 3 -9
-1 -9 -9z"/>
<path d="M556 2607 c3 -10 9 -15 12 -12 3 3 0 11 -7 18 -10 9 -11 8 -5 -6z"/>
<path d="M1335 2609 c-4 -6 -5 -12 -2 -15 2 -3 7 2 10 11 7 17 1 20 -8 4z"/>
<path d="M1575 2611 c-3 -5 -2 -12 3 -15 5 -3 9 1 9 9 0 17 -3 19 -12 6z"/>
<path d="M1270 2607 c0 -3 12 -12 26 -22 15 -9 23 -12 20 -6 -7 11 -46 35 -46
28z"/>
<path d="M1396 2602 c-2 -4 -1 -14 4 -22 7 -11 9 -9 7 8 -1 24 -3 26 -11 14z"/>
<path d="M1495 2600 c-2 -3 10 -6 26 -6 16 -1 29 1 29 5 0 8 -50 9 -55 1z"/>
<path d="M1621 2596 c-9 -11 -9 -16 1 -22 7 -4 10 -4 6 1 -4 4 -3 14 3 22 6 7
9 13 6 13 -2 0 -10 -6 -16 -14z"/>
<path d="M1730 2600 c0 -5 5 -10 11 -10 5 0 7 5 4 10 -3 6 -8 10 -11 10 -2 0
-4 -4 -4 -10z"/>
<path d="M590 2586 c0 -2 7 -7 16 -10 8 -3 12 -2 9 4 -6 10 -25 14 -25 6z"/>
<path d="M1136 2581 c-9 -15 23 -36 35 -24 8 8 6 11 -7 10 -11 -1 -18 4 -16
11 2 14 -4 16 -12 3z"/>
<path d="M1210 2585 c0 -7 30 -13 34 -7 3 4 -4 9 -15 9 -10 1 -19 0 -19 -2z"/>
<path d="M1567 2579 c7 -7 15 -10 18 -7 3 3 -2 9 -12 12 -14 6 -15 5 -6 -5z"/>
<path d="M1645 2579 c-4 -6 -5 -12 -2 -15 2 -3 7 2 10 11 7 17 1 20 -8 4z"/>
<path d="M1717 2579 c7 -7 15 -10 18 -7 3 3 -2 9 -12 12 -14 6 -15 5 -6 -5z"/>
<path d="M1670 2571 c0 -5 5 -13 10 -16 6 -3 10 -2 10 4 0 5 -4 13 -10 16 -5
3 -10 2 -10 -4z"/>
<path d="M455 2560 c-3 -5 -1 -10 4 -10 6 0 11 5 11 10 0 6 -2 10 -4 10 -3 0
-8 -4 -11 -10z"/>
<path d="M642 2556 c7 -8 15 -12 17 -11 5 6 -10 25 -20 25 -5 0 -4 -6 3 -14z"/>
<path d="M833 2555 c0 -8 4 -12 9 -9 4 3 8 9 8 15 0 5 -4 9 -8 9 -5 0 -9 -7
-9 -15z"/>
<path d="M877 2563 c-5 -12 -2 -26 10 -48 7 -11 13 -15 13 -8 0 6 -4 14 -9 18
-6 3 -8 14 -6 25 4 20 0 27 -8 13z"/>
<path d="M1240 2560 c-9 -6 -10 -10 -3 -10 6 0 15 5 18 10 8 12 4 12 -15 0z"/>
<path d="M945 2540 c-3 -6 1 -7 9 -4 18 7 21 14 7 14 -6 0 -13 -4 -16 -10z"/>
<path d="M986 2517 c3 -10 9 -15 12 -12 3 3 0 11 -7 18 -10 9 -11 8 -5 -6z"/>
<path d="M1028 2517 c7 -8 8 -18 4 -22 -4 -5 -1 -5 6 -1 17 10 15 23 -4 30
-13 5 -14 4 -6 -7z"/>
<path d="M1075 2520 c3 -5 8 -10 11 -10 2 0 4 5 4 10 0 6 -5 10 -11 10 -5 0
-7 -4 -4 -10z"/>
<path d="M2293 2505 c0 -8 4 -12 9 -9 5 3 6 10 3 15 -9 13 -12 11 -12 -6z"/>
<path d="M920 2500 c20 -13 33 -13 25 0 -3 6 -14 10 -23 10 -15 0 -15 -2 -2
-10z"/>
<path d="M2315 2480 c3 -5 8 -10 11 -10 2 0 4 5 4 10 0 6 -5 10 -11 10 -5 0
-7 -4 -4 -10z"/>
<path d="M2305 2439 c-11 -16 -1 -19 13 -3 7 8 8 14 3 14 -5 0 -13 -5 -16 -11z"/>
<path d="M2316 2373 c-6 -14 -5 -15 5 -6 7 7 10 15 7 18 -3 3 -9 -2 -12 -12z"/>
<path d="M378 2368 c5 -5 16 -8 23 -6 8 3 3 7 -10 11 -17 4 -21 3 -13 -5z"/>
<path d="M370 2339 c0 -5 5 -7 10 -4 6 3 10 8 10 11 0 2 -4 4 -10 4 -5 0 -10
-5 -10 -11z"/>
<path d="M390 2320 c0 -5 5 -10 11 -10 5 0 7 5 4 10 -3 6 -8 10 -11 10 -2 0
-4 -4 -4 -10z"/>
<path d="M2296 2293 c-6 -14 -5 -15 5 -6 7 7 10 15 7 18 -3 3 -9 -2 -12 -12z"/>
<path d="M370 2241 c0 -6 4 -13 10 -16 6 -3 7 1 4 9 -7 18 -14 21 -14 7z"/>
<path d="M406 2235 c4 -8 8 -15 10 -15 2 0 4 7 4 15 0 8 -4 15 -10 15 -5 0 -7
-7 -4 -15z"/>
<path d="M2263 2233 c0 -11 7 -20 14 -20 10 0 10 4 1 16 -7 9 -13 18 -15 20
-1 2 -1 -5 0 -16z"/>
<path d="M395 2181 c-3 -5 -2 -12 3 -15 5 -3 9 1 9 9 0 17 -3 19 -12 6z"/>
<path d="M2253 2155 c0 -8 4 -12 9 -9 4 3 8 9 8 15 0 5 -4 9 -8 9 -5 0 -9 -7
-9 -15z"/>
<path d="M415 2129 c-4 -6 -5 -12 -2 -15 2 -3 7 2 10 11 7 17 1 20 -8 4z"/>
<path d="M435 2119 c-4 -6 -5 -12 -2 -15 2 -3 7 2 10 11 7 17 1 20 -8 4z"/>
<path d="M2234 2119 c-3 -6 -3 -13 0 -16 3 -4 6 -1 6 5 0 6 11 9 27 6 15 -3
25 -3 22 1 -12 11 -49 14 -55 4z"/>
<path d="M2210 2086 c0 -2 7 -7 16 -10 8 -3 12 -2 9 4 -6 10 -25 14 -25 6z"/>
<path d="M446 2062 c-3 -5 1 -9 9 -9 8 0 12 4 9 9 -3 4 -7 8 -9 8 -2 0 -6 -4
-9 -8z"/>
<path d="M2200 2060 c20 -13 33 -13 25 0 -3 6 -14 10 -23 10 -15 0 -15 -2 -2
-10z"/>
<path d="M2246 2062 c-3 -5 1 -9 9 -9 8 0 12 4 9 9 -3 4 -7 8 -9 8 -2 0 -6 -4
-9 -8z"/>
<path d="M2192 2046 c4 -5 3 -15 -3 -22 -7 -8 -7 -14 1 -19 5 -3 10 -11 10
-16 0 -6 -5 -7 -12 -3 -7 4 -2 -7 11 -24 12 -18 25 -32 27 -32 3 0 -1 9 -9 21
-8 11 -13 29 -10 40 3 11 0 19 -6 19 -7 0 -9 5 -6 10 5 7 11 8 19 1 8 -7 17
-6 26 0 13 9 13 10 0 6 -8 -2 -24 3 -35 12 -11 9 -17 12 -13 7z"/>
<path d="M470 2016 c0 -2 8 -10 18 -17 15 -13 16 -12 3 4 -13 16 -21 21 -21
13z"/>
<path d="M470 1980 c0 -5 5 -10 11 -10 5 0 7 5 4 10 -3 6 -8 10 -11 10 -2 0
-4 -4 -4 -10z"/>
<path d="M2235 1980 c-16 -7 -17 -9 -3 -9 9 -1 20 4 23 9 7 11 7 11 -20 0z"/>
<path d="M520 1920 c-6 -12 -16 -18 -23 -14 -7 4 -8 3 -4 -1 10 -12 38 -15 31
-4 -3 5 0 9 6 9 6 0 9 4 6 9 -4 5 0 12 6 14 10 4 10 6 1 6 -7 1 -17 -8 -23
-19z"/>
<path d="M2260 1920 c-9 -6 -10 -10 -3 -10 6 0 15 5 18 10 8 12 4 12 -15 0z"/>
<path d="M543 1888 c4 -10 2 -18 -3 -18 -6 0 -10 -5 -10 -11 0 -8 4 -9 13 0
21 17 29 1 9 -18 -10 -9 -13 -13 -7 -9 7 4 14 6 16 3 3 -2 10 4 16 14 9 15 9
23 -3 37 -14 18 -14 18 -8 -1 l6 -20 -18 20 c-14 17 -16 17 -11 3z"/>
<path d="M496 1853 c-6 -14 -5 -15 5 -6 7 7 10 15 7 18 -3 3 -9 -2 -12 -12z"/>
<path d="M2260 1866 c0 -2 7 -6 15 -10 8 -3 15 -1 15 4 0 6 -7 10 -15 10 -8 0
-15 -2 -15 -4z"/>
<path d="M496 1779 c4 -7 44 0 44 7 0 2 -11 3 -24 2 -14 -1 -23 -5 -20 -9z"/>
<path d="M529 1763 c-1 -4 -2 -12 -4 -18 -1 -5 -3 -14 -3 -19 -1 -5 -10 -2
-19 5 -15 11 -16 11 -6 0 6 -7 9 -21 5 -30 -5 -14 -4 -14 9 -1 26 25 40 58 29
65 -5 3 -11 3 -11 -2z"/>
<path d="M2386 1718 c3 -5 10 -6 15 -3 13 9 11 12 -6 12 -8 0 -12 -4 -9 -9z"/>
<path d="M450 1700 c0 -5 5 -10 11 -10 5 0 7 5 4 10 -3 6 -8 10 -11 10 -2 0
-4 -4 -4 -10z"/>
<path d="M2475 1640 c3 -5 8 -10 11 -10 2 0 4 5 4 10 0 6 -5 10 -11 10 -5 0
-7 -4 -4 -10z"/>
<path d="M434 1598 c-4 -7 -4 -10 1 -6 4 4 14 0 22 -10 13 -15 13 -15 3 6 -12
25 -16 27 -26 10z"/>
<path d="M387 1495 c3 -8 9 -13 13 -10 5 3 10 0 12 -7 3 -8 6 -9 11 -1 3 5 -5
15 -18 21 -20 9 -23 9 -18 -3z"/>
<path d="M2516 1493 c-6 -14 -5 -15 5 -6 7 7 10 15 7 18 -3 3 -9 -2 -12 -12z"/>
<path d="M357 1493 c-10 -9 -9 -23 1 -23 5 0 9 7 9 15 0 17 -1 18 -10 8z"/>
<path d="M2495 1460 c-3 -6 1 -7 9 -4 18 7 21 14 7 14 -6 0 -13 -4 -16 -10z"/>
<path d="M286 1442 c-3 -5 1 -9 9 -9 8 0 12 4 9 9 -3 4 -7 8 -9 8 -2 0 -6 -4
-9 -8z"/>
<path d="M330 1440 c0 -5 5 -10 11 -10 5 0 7 5 4 10 -3 6 -8 10 -11 10 -2 0
-4 -4 -4 -10z"/>
<path d="M2476 1375 c-11 -8 -15 -15 -9 -15 6 0 16 7 23 15 16 19 11 19 -14 0z"/>
<path d="M235 1371 c-3 -5 -2 -12 3 -15 5 -3 9 1 9 9 0 17 -3 19 -12 6z"/>
<path d="M2445 1321 c-12 -25 -13 -29 0 -27 8 1 18 6 22 11 5 4 2 5 -6 0 -11
-6 -13 -4 -8 9 4 10 7 20 7 22 0 3 5 2 12 -2 7 -4 8 -3 4 4 -10 17 -14 15 -31
-17z"/>
<path d="M250 1241 c0 -6 4 -12 8 -15 5 -3 9 1 9 9 0 8 -4 15 -9 15 -4 0 -8
-4 -8 -9z"/>
<path d="M2387 1199 c4 -13 8 -18 11 -10 2 7 -1 18 -6 23 -8 8 -9 4 -5 -13z"/>
<path d="M250 1200 c0 -5 5 -10 11 -10 5 0 7 5 4 10 -3 6 -8 10 -11 10 -2 0
-4 -4 -4 -10z"/>
<path d="M297 1169 c4 -13 8 -18 11 -10 2 7 -1 18 -6 23 -8 8 -9 4 -5 -13z"/>
<path d="M2349 1187 c0 -1 -2 -10 -4 -20 -3 -15 -1 -16 13 -5 9 7 18 13 20 14
2 1 -4 4 -13 7 -8 4 -15 5 -16 4z"/>
<path d="M324 1152 c0 -10 6 -19 13 -19 8 0 9 6 2 19 -5 10 -11 18 -12 18 -2
0 -3 -8 -3 -18z"/>
<path d="M2326 1123 c-6 -14 -5 -15 5 -6 7 7 10 15 7 18 -3 3 -9 -2 -12 -12z"/>
<path d="M2350 1121 c0 -6 4 -13 10 -16 6 -3 7 1 4 9 -7 18 -14 21 -14 7z"/>
<path d="M2295 1100 c3 -5 8 -10 11 -10 2 0 4 5 4 10 0 6 -5 10 -11 10 -5 0
-7 -4 -4 -10z"/>
<path d="M355 1080 c-3 -5 -1 -10 4 -10 6 0 11 5 11 10 0 6 -2 10 -4 10 -3 0
-8 -4 -11 -10z"/>
<path d="M2250 1066 c0 -3 9 -10 20 -16 11 -6 20 -8 20 -6 0 3 -9 10 -20 16
-11 6 -20 8 -20 6z"/>
<path d="M2247 1039 c7 -7 15 -10 18 -7 3 3 -2 9 -12 12 -14 6 -15 5 -6 -5z"/>
<path d="M2226 1013 c-6 -14 -5 -15 5 -6 7 7 10 15 7 18 -3 3 -9 -2 -12 -12z"/>
<path d="M431 994 c0 -11 3 -14 6 -6 3 7 2 16 -1 19 -3 4 -6 -2 -5 -13z"/>
<path d="M457 979 c7 -7 15 -10 18 -7 3 3 -2 9 -12 12 -14 6 -15 5 -6 -5z"/>
<path d="M2190 960 c0 -4 7 -7 15 -6 23 3 26 12 5 13 -11 1 -20 -2 -20 -7z"/>
<path d="M2163 943 c9 -2 14 -9 11 -15 -4 -7 -2 -8 5 -4 15 10 4 26 -17 25
-15 -1 -15 -2 1 -6z"/>
<path d="M506 922 c-3 -4 4 -9 15 -9 23 -2 25 3 4 10 -8 4 -16 3 -19 -1z"/>
<path d="M550 904 c0 -16 21 -30 49 -32 13 0 22 0 20 1 -2 2 -13 9 -23 17 -13
10 -17 10 -12 3 4 -7 3 -13 -3 -13 -5 0 -15 8 -20 18 -6 9 -11 12 -11 6z"/>
<path d="M2165 900 c-3 -6 1 -7 9 -4 18 7 21 14 7 14 -6 0 -13 -4 -16 -10z"/>
<path d="M663 825 c0 -8 4 -12 8 -9 4 2 10 -4 12 -13 4 -15 5 -15 6 -2 0 9 -5
22 -12 28 -10 8 -14 7 -14 -4z"/>
<path d="M704 791 c0 -11 5 -17 13 -14 10 4 11 9 2 19 -15 18 -15 18 -15 -5z"/>
<path d="M660 780 c8 -5 20 -10 25 -10 6 0 3 5 -5 10 -8 5 -19 10 -25 10 -5 0
-3 -5 5 -10z"/>
<path d="M770 751 c0 -5 7 -12 16 -15 14 -5 15 -4 4 9 -14 17 -20 19 -20 6z"/>
<path d="M756 718 c3 -5 10 -6 15 -3 13 9 11 12 -6 12 -8 0 -12 -4 -9 -9z"/>
<path d="M810 720 c0 -5 5 -10 11 -10 5 0 7 5 4 10 -3 6 -8 10 -11 10 -2 0 -4
-4 -4 -10z"/>
<path d="M836 701 c-3 -5 2 -15 12 -22 15 -12 16 -12 5 2 -7 9 -10 19 -6 22 3
4 4 7 0 7 -3 0 -8 -4 -11 -9z"/>
<path d="M934 659 c-3 -6 -1 -16 5 -22 9 -9 10 -7 5 8 -7 18 -6 18 9 6 9 -7
17 -9 17 -3 0 14 -28 23 -36 11z"/>
<path d="M2027 659 c7 -7 15 -10 18 -7 3 3 -2 9 -12 12 -14 6 -15 5 -6 -5z"/>
<path d="M835 649 c-4 -6 -5 -12 -2 -15 2 -3 7 2 10 11 7 17 1 20 -8 4z"/>
<path d="M995 641 c-2 -4 4 -15 12 -26 11 -14 14 -15 10 -4 -3 9 -1 21 4 26 6
6 4 10 -6 10 -9 0 -18 -3 -20 -6z"/>
<path d="M980 610 c6 -11 13 -20 16 -20 2 0 0 9 -6 20 -6 11 -13 20 -16 20 -2
0 0 -9 6 -20z"/>
<path d="M1030 622 c0 -4 10 -13 23 -21 22 -14 22 -14 3 8 -20 22 -26 25 -26
13z"/>
<path d="M1980 599 c-19 -17 -27 -26 -17 -19 23 17 22 -2 -2 -24 -11 -10 -17
-25 -14 -37 8 -29 28 -17 28 16 0 19 6 30 19 35 18 6 18 7 2 13 -16 7 -16 9 5
27 13 11 22 19 19 20 -3 0 -21 -14 -40 -31z m-13 -71 c2 -17 0 -19 -7 -8 -5 8
-6 18 -4 22 8 12 10 10 11 -14z"/>
<path d="M2016 587 c3 -10 9 -15 12 -12 3 3 0 11 -7 18 -10 9 -11 8 -5 -6z"/>
<path d="M936 573 c-6 -14 -5 -15 5 -6 7 7 10 15 7 18 -3 3 -9 -2 -12 -12z"/>
<path d="M980 576 c0 -2 7 -7 16 -10 8 -3 12 -2 9 4 -6 10 -25 14 -25 6z"/>
<path d="M1063 555 c0 -8 4 -12 9 -9 5 3 6 10 3 15 -9 13 -12 11 -12 -6z"/>
<path d="M1990 530 c0 -5 5 -10 10 -10 6 0 10 5 10 10 0 6 -4 10 -10 10 -5 0
-10 -4 -10 -10z"/>
<path d="M1056 522 c-3 -5 1 -9 9 -9 8 0 12 4 9 9 -3 4 -7 8 -9 8 -2 0 -6 -4
-9 -8z"/>
<path d="M2027 519 c7 -7 15 -10 18 -7 3 3 -2 9 -12 12 -14 6 -15 5 -6 -5z"/>
<path d="M895 501 c-6 -10 11 -24 32 -27 7 -1 16 3 20 8 4 7 1 8 -7 3 -10 -6
-12 -3 -7 11 7 18 7 18 -8 0 -13 -18 -20 -15 -16 7 1 10 -7 9 -14 -2z"/>
<path d="M746 442 c-3 -5 1 -9 9 -9 8 0 12 4 9 9 -3 4 -7 8 -9 8 -2 0 -6 -4
-9 -8z"/>
<path d="M800 435 c-7 -9 -8 -15 -2 -15 5 0 12 7 16 15 3 8 4 15 2 15 -2 0 -9
-7 -16 -15z"/>
<path d="M2076 287 c3 -10 9 -15 12 -12 3 3 0 11 -7 18 -10 9 -11 8 -5 -6z"/>
<path d="M2036 275 c-11 -8 -15 -15 -9 -15 7 0 15 5 18 10 4 6 11 7 17 4 7 -4
8 -2 4 4 -9 14 -7 15 -30 -3z"/>
<path d="M1966 242 c-3 -5 1 -9 9 -9 8 0 12 4 9 9 -3 4 -7 8 -9 8 -2 0 -6 -4
-9 -8z"/>
<path d="M2017 235 c-4 -8 -3 -16 1 -19 4 -3 9 4 9 15 2 23 -3 25 -10 4z"/>
<path d="M815 220 c-3 -5 -1 -10 4 -10 6 0 11 5 11 10 0 6 -2 10 -4 10 -3 0
-8 -4 -11 -10z"/>
<path d="M1887 207 c-3 -8 1 -14 8 -14 7 0 11 6 8 14 -6 16 -10 16 -16 0z"/>
<path d="M850 205 c0 -7 30 -13 34 -7 3 4 -4 9 -15 9 -10 1 -19 0 -19 -2z"/>
<path d="M895 189 c-4 -6 -5 -12 -2 -15 2 -3 7 2 10 11 7 17 1 20 -8 4z"/>
<path d="M918 188 c-7 -17 15 -19 29 -3 4 4 3 5 -4 2 -6 -4 -13 -2 -15 5 -3 8
-6 6 -10 -4z"/>
<path d="M1820 185 c-7 -9 -8 -15 -2 -15 5 0 12 7 16 15 3 8 4 15 2 15 -2 0
-9 -7 -16 -15z"/>
<path d="M1759 175 c-1 -3 -2 -13 -3 -22 -1 -10 -4 -23 -8 -29 -4 -6 -2 -11 5
-11 8 0 13 14 13 34 0 29 -4 43 -7 28z"/>
<path d="M953 155 c0 -8 4 -12 9 -9 5 3 6 10 3 15 -9 13 -12 11 -12 -6z"/>
<path d="M1706 155 c-11 -8 -15 -15 -9 -15 7 0 15 5 18 10 4 6 11 7 17 4 7 -4
8 -2 4 4 -9 14 -7 15 -30 -3z"/>
<path d="M1815 151 c-3 -5 -2 -12 3 -15 5 -3 9 1 9 9 0 17 -3 19 -12 6z"/>
<path d="M1616 133 c-6 -14 -5 -15 5 -6 7 7 10 15 7 18 -3 3 -9 -2 -12 -12z"/>
<path d="M1049 123 c-13 -16 -12 -17 4 -4 16 13 21 21 13 21 -2 0 -10 -8 -17
-17z"/>
<path d="M1154 111 c0 -16 4 -27 8 -25 4 2 5 14 3 26 -7 32 -13 32 -11 -1z"/>
<path d="M1190 131 c0 -5 5 -13 10 -16 6 -3 10 -2 10 4 0 5 -4 13 -10 16 -5 3
-10 2 -10 -4z"/>
<path d="M1639 133 c0 -5 -2 -16 -4 -26 -2 -11 -1 -16 3 -13 8 8 14 46 7 46
-3 0 -5 -3 -6 -7z"/>
<path d="M1095 120 c-3 -6 1 -7 9 -4 18 7 21 14 7 14 -6 0 -13 -4 -16 -10z"/>
<path d="M1285 120 c-2 -4 1 -7 8 -7 7 0 19 -3 27 -5 8 -3 12 -3 7 -1 -4 3 -5
8 -3 12 3 4 -4 7 -15 7 -11 0 -22 -3 -24 -6z"/>
<path d="M1350 119 c0 -5 5 -7 10 -4 6 3 10 8 10 11 0 2 -4 4 -10 4 -5 0 -10
-5 -10 -11z"/>
<path d="M1395 120 c-3 -5 -1 -10 4 -10 6 0 11 5 11 10 0 6 -2 10 -4 10 -3 0
-8 -4 -11 -10z"/>
<path d="M1450 120 c0 -5 5 -10 11 -10 5 0 7 5 4 10 -3 6 -8 10 -11 10 -2 0
-4 -4 -4 -10z"/>
<path d="M1575 121 c-3 -5 0 -13 6 -17 7 -4 9 -3 5 4 -3 5 0 13 6 15 9 4 10 6
1 6 -6 1 -14 -3 -18 -8z"/>
<path d="M1686 118 c3 -5 10 -6 15 -3 13 9 11 12 -6 12 -8 0 -12 -4 -9 -9z"/>
<path d="M1239 108 c-5 -18 -6 -38 -1 -34 7 8 12 36 6 36 -2 0 -4 -1 -5 -2z"/>
<path d="M1375 100 c6 -10 4 -12 -11 -6 -15 6 -17 5 -6 -5 9 -9 15 -10 23 -2
8 8 7 13 -2 18 -8 6 -10 4 -4 -5z"/>
<path d="M1413 83 c0 -9 6 -9 21 -1 30 15 30 16 3 14 -13 0 -24 -6 -24 -13z"/>
<path d="M1329 77 c6 -8 7 -18 3 -22 -4 -5 -1 -5 6 -1 10 6 10 11 1 22 -6 8
-14 14 -16 14 -3 0 0 -6 6 -13z"/>
</g>
</svg>
